<?xml version="1.0" encoding="UTF-8" standalone="no"?> <!-- Created with Vectornator for iOS (http://vectornator.io/) --><!DOCTYPE svg PUBLIC "-//W3C//DTD SVG 1.1//EN" "http://www.w3.org/Graphics/SVG/1.1/DTD/svg11.dtd">
<svg height="100%" style="fill-rule:evenodd;clip-rule:evenodd;stroke-linecap:round;stroke-linejoin:round;" xmlns:xlink="http://www.w3.org/1999/xlink" xmlns="http://www.w3.org/2000/svg" xml:space="preserve" width="100%" xmlns:vectornator="http://vectornator.io" version="1.1" viewBox="0 0 300 300">
<metadata>
<vectornator:setting key="DisplayWhiteBackground" value="0"/>
<vectornator:setting key="RulersVisible" value="1"/>
<vectornator:setting key="GridSpacing" value="36"/>
<vectornator:setting key="Units" value="Pixels"/>
<vectornator:setting key="DynamicGuides" value="0"/>
<vectornator:setting key="SnapToPoints" value="0"/>
<vectornator:setting key="CMYKEnabledKey" value="0"/>
<vectornator:setting key="SnapToGrid" value="0"/>
<vectornator:setting key="SnapToGuides" value="1"/>
<vectornator:setting key="ShowGrid" value="1"/>
<vectornator:setting key="SnapToEdges" value="0"/>
</metadata>
<defs>
<linearGradient y1="209.975" id="LinearGradient" x1="166.323" y2="209.975" x2="195.653" gradientUnits="userSpaceOnUse" gradientTransform="matrix(1 0 0 1 -39.1459 -52.131)">
<stop stop-color="#68b743" offset="0"/>
<stop stop-color="#4c8a2e" offset="1"/>
</linearGradient>
</defs>
<g id="Layer 1" vectornator:layerName="Layer 1">
<path stroke="#000000" stroke-width="3" d="M127.177+147.723L156.507+147.723L156.507+167.965L127.177+167.965L127.177+147.723Z" fill="url(#LinearGradient)" stroke-linecap="butt" opacity="1" stroke-linejoin="round"/>
<path stroke="#000000" stroke-width="3" d="M60.8541+78.869L60.8541+78.869C66.377+78.869+70.8541+82.7424+70.8541+87.5205L70.8541+105.218C70.8541+109.996+66.377+113.869+60.8541+113.869L60.8541+113.869C55.3313+113.869+50.8541+109.996+50.8541+105.218L50.8541+87.5205C50.8541+82.7424+55.3313+78.869+60.8541+78.869Z" fill="#72b46a" stroke-linecap="butt" opacity="1" stroke-linejoin="round"/>
<path stroke="#000000" stroke-width="3" d="M230.854+78.869L230.854+78.869C236.377+78.869+240.854+82.7424+240.854+87.5205L240.854+105.218C240.854+109.996+236.377+113.869+230.854+113.869L230.854+113.869C225.331+113.869+220.854+109.996+220.854+105.218L220.854+87.5205C220.854+82.7424+225.331+78.869+230.854+78.869Z" fill="#72b46a" stroke-linecap="butt" opacity="1" stroke-linejoin="round"/>
<path stroke="#2d2d2d" stroke-width="3" d="M105.078+35.7359L105.078+35.7359C111.326+35.7359+116.391+40.8008+116.391+47.0488L116.391+47.0488C116.391+53.2967+111.326+58.3617+105.078+58.3617L105.078+58.3617C98.83+58.3617+93.765+53.2967+93.765+47.0488L93.765+47.0488C93.765+40.8008+98.83+35.7359+105.078+35.7359Z" fill="#88d77e" stroke-linecap="butt" opacity="1" stroke-linejoin="round"/>
<path stroke="#2d2d2d" stroke-width="3" d="M185.672+35.3504L185.672+35.3504C191.92+35.3504+196.985+40.4154+196.985+46.6633L196.985+46.6633C196.985+52.9113+191.92+57.9763+185.672+57.9763L185.672+57.9763C179.424+57.9763+174.359+52.9113+174.359+46.6633L174.359+46.6633C174.359+40.4154+179.424+35.3504+185.672+35.3504Z" fill="#88d77e" stroke-linecap="butt" opacity="1" stroke-linejoin="round"/>
<path stroke="#000000" stroke-width="3" d="M78.3289+47.869L213.379+47.869C223.03+47.869+230.854+54.9824+230.854+63.7573L230.854+131.981C230.854+140.756+223.03+147.869+213.379+147.869L78.3289+147.869C68.6778+147.869+60.8541+140.756+60.8541+131.981L60.8541+63.7573C60.8541+54.9824+68.6778+47.869+78.3289+47.869Z" fill="#fffea9" stroke-linecap="butt" opacity="1" stroke-linejoin="round"/>
<path stroke="#313131" stroke-width="1" d="M95.5032+57.869L95.5032+57.869C103.671+57.869+110.292+64.4903+110.292+72.6581L110.292+88.6034C110.292+96.7712+103.671+103.393+95.5032+103.393L95.5032+103.393C87.3354+103.393+80.7141+96.7712+80.7141+88.6034L80.7141+72.6581C80.7141+64.4903+87.3354+57.869+95.5032+57.869Z" fill="#262626" stroke-linecap="butt" opacity="1" stroke-linejoin="round"/>
<path stroke="#ffffff" stroke-width="1" d="M98.3536+64.3262L98.3536+64.3262C102.457+64.3262+105.784+67.6527+105.784+71.7562L105.784+71.7562C105.784+75.8598+102.457+79.1863+98.3536+79.1863L98.3536+79.1863C94.2501+79.1863+90.9235+75.8598+90.9235+71.7562L90.9235+71.7562C90.9235+67.6527+94.2501+64.3262+98.3536+64.3262Z" fill="#ffffff" stroke-linecap="butt" opacity="1" stroke-linejoin="round"/>
<path stroke="#313131" stroke-width="1" d="M194.721+57.869L194.721+57.869C202.889+57.869+209.51+64.4903+209.51+72.6581L209.51+88.6034C209.51+96.7712+202.889+103.393+194.721+103.393L194.721+103.393C186.554+103.393+179.932+96.7712+179.932+88.6034L179.932+72.6581C179.932+64.4903+186.554+57.869+194.721+57.869Z" fill="#262626" stroke-linecap="butt" opacity="1" stroke-linejoin="round"/>
<path stroke="#ffffff" stroke-width="1" d="M197.572+64.3262L197.572+64.3262C201.675+64.3262+205.002+67.6527+205.002+71.7562L205.002+71.7562C205.002+75.8598+201.675+79.1863+197.572+79.1863L197.572+79.1863C193.468+79.1863+190.142+75.8598+190.142+71.7562L190.142+71.7562C190.142+67.6527+193.468+64.3262+197.572+64.3262Z" fill="#ffffff" stroke-linecap="butt" opacity="1" stroke-linejoin="round"/>
<path stroke="#ffffff" stroke-width="1" d="M111.871+109.975" fill="#ffffff" stroke-linecap="butt" opacity="1" stroke-linejoin="round"/>
<path stroke="#292929" stroke-width="1" d="M157.429+113.47C157.424+112.016+161.351+112.929+161.352+113.693C161.377+134.135+124.565+136.994+123.542+112.27C123.531+111.999+127.509+111.753+127.448+112.435C125.692+131.939+157.492+131.449+157.429+113.47Z" fill="#282828" stroke-linecap="butt" opacity="1" stroke-linejoin="round"/>
<path stroke="#000000" stroke-width="3" d="M50.8151+158.439L240.893+158.439C251.917+158.439+260.854+167.448+260.854+178.56L260.854+263.318C260.854+274.43+251.917+283.439+240.893+283.439L50.8151+283.439C39.791+283.439+30.8541+274.43+30.8541+263.318L30.8541+178.56C30.8541+167.448+39.791+158.439+50.8151+158.439Z" fill="#88d77e" stroke-linecap="butt" opacity="1" stroke-linejoin="round"/>
<g opacity="1">
<path stroke="#000000" stroke-width="1" d="M46.8801+240.134C48.1525+240.281+47.3551+244.032+46.684+244.056C38.2214+244.361+7.96554+242.41+6.08+233.254C4.84834+227.272+5.18658+226.292+6.35156+222.8C10.1936+211.281+25.8485+213.655+29.6333+213.524C29.8711+213.516+30.5527+217.085+29.9509+217.072C21.134+216.877+13.509+217.565+10.6797+221.611C8.21312+225.139+7.54185+228.689+9.73402+232.098C15.2151+240.623+34.8848+238.749+46.8801+240.134Z" fill="#000000" stroke-linecap="butt" opacity="1" stroke-linejoin="round"/>
<path stroke="#000000" stroke-width="1" d="M59.8545+251.961C61.1335+251.957+60.3299+254.485+59.6585+254.486C41.676+254.502+39.1604+230.805+60.9102+230.146C61.148+230.139+61.3644+232.7+60.7648+232.66C43.6074+231.53+44.0381+252.001+59.8545+251.961Z" fill="#000000" stroke-linecap="butt" opacity="1" stroke-linejoin="round"/>
</g>
<g opacity="1">
<path stroke="#000000" stroke-width="1" d="M241.946+240.223C240.553+240.365+241.426+243.977+242.161+244.001C251.425+244.295+284.546+242.416+286.61+233.598C287.959+227.838+287.588+226.894+286.313+223.53C282.107+212.438+264.97+214.725+260.826+214.598C260.566+214.59+259.82+218.028+260.479+218.015C270.131+217.827+278.478+218.49+281.575+222.386C284.275+225.783+285.01+229.202+282.61+232.485C276.61+240.695+255.077+238.89+241.946+240.223Z" fill="#000000" stroke-linecap="butt" opacity="1" stroke-linejoin="round"/>
<path stroke="#000000" stroke-width="1" d="M227.743+251.613C226.342+251.61+227.222+254.044+227.957+254.045C247.643+254.06+250.397+231.239+226.587+230.605C226.327+230.598+226.09+233.064+226.746+233.026C245.529+231.938+245.057+251.652+227.743+251.613Z" fill="#000000" stroke-linecap="butt" opacity="1" stroke-linejoin="round"/>
</g>
<g opacity="1">
<path stroke="#333333" stroke-width="3" d="M81.514+208.542C79.1442+208.542+74.4215+208.542+67.346+208.542C66.8043+209.998+65.7379+212.943+64.1468+217.378C63.7405+218.393+63.0973+218.918+62.2171+218.952C61.9462+218.952+61.6585+218.901+61.3538+218.8C60.4059+218.495+59.9319+217.919+59.9319+217.073C59.9319+216.734+60.0166+216.345+60.1858+215.905C62.928+208.694+67.0244+197.878+72.4749+183.456C72.8811+182.44+73.5244+181.932+74.4046+181.932C75.3186+181.899+75.9788+182.406+76.3851+183.456C79.1611+190.667+83.3082+201.483+88.8265+215.905C88.9619+216.277+89.0296+216.599+89.0296+216.87C89.0296+217.716+88.5387+218.309+87.5569+218.647C86.2366+219.155+85.3056+218.732+84.764+217.378C84.053+215.414+82.9697+212.469+81.514+208.542ZM68.6663+204.835C70.596+204.835+74.4384+204.835+80.1936+204.835C79.2457+202.194+77.333+196.913+74.4554+188.991C73.4736+191.632+71.5439+196.913+68.6663+204.835Z" fill="#333333" stroke-linecap="butt" opacity="1" stroke-linejoin="round"/>
<path stroke="#333333" stroke-width="3" d="M110.561+216.261C108.733+218.427+105.94+219.477+102.182+219.409C99.2705+219.409+97.0869+218.512+95.6311+216.718C94.1416+214.889+93.3968+212.317+93.3968+208.999C93.3968+205.647+93.3968+200.62+93.3968+193.917C93.3968+192.156+94.1754+191.276+95.7327+191.276C97.29+191.276+98.0686+192.156+98.0686+193.917C98.0686+196.422+98.0686+201.449+98.0686+208.999C98.0686+213.163+99.6936+215.296+102.944+215.397C106.498+215.533+108.868+214.263+110.053+211.589C110.053+207.662+110.053+201.788+110.053+193.968C110.053+192.207+110.832+191.327+112.389+191.327C113.946+191.327+114.725+192.19+114.725+193.917C114.725+197.708+114.725+205.343+114.725+216.819C114.725+218.546+114.031+219.409+112.643+219.409C111.255+219.409+110.561+218.546+110.561+216.819C110.561+216.718+110.561+216.531+110.561+216.261Z" fill="#333333" stroke-linecap="butt" opacity="1" stroke-linejoin="round"/>
<path stroke="#333333" stroke-width="3" d="M128.283+187.112C128.283+187.823+128.283+189.211+128.283+191.276C128.893+191.276+130.145+191.276+132.041+191.276C132.989+191.276+133.463+191.886+133.463+193.104C133.463+194.323+132.955+194.932+131.94+194.932C131.33+194.932+130.112+194.932+128.283+194.932C128.283+197.81+128.3+203.531+128.334+212.096C128.334+213.18+128.487+213.975+128.791+214.483C129.096+214.991+129.79+215.245+130.873+215.245C131.584+215.245+132.448+215.076+133.463+214.737C133.768+214.636+134.073+214.602+134.377+214.636C134.682+214.669+134.919+214.822+135.088+215.093C135.19+215.262+135.257+215.533+135.291+215.905C135.291+215.973+135.291+216.04+135.291+216.108C135.291+216.413+135.224+216.734+135.088+217.073C135.02+217.276+134.885+217.496+134.682+217.733C134.513+217.97+134.293+218.173+134.022+218.343C132.972+219.053+131.618+219.409+129.959+219.409C127.86+219.409+126.286+218.766+125.237+217.479C124.153+216.227+123.612+214.432+123.612+212.096C123.612+208.271+123.612+202.55+123.612+194.932C123.07+194.932+122.02+194.932+120.463+194.932C119.075+194.932+118.381+194.323+118.381+193.104C118.381+191.886+119.075+191.276+120.463+191.276C120.971+191.276+122.02+191.276+123.612+191.276C123.612+190.599+123.612+189.211+123.612+187.112C123.612+185.386+124.39+184.522+125.948+184.522C127.505+184.522+128.283+185.386+128.283+187.112Z" fill="#333333" stroke-linecap="butt" opacity="1" stroke-linejoin="round"/>
<path stroke="#333333" stroke-width="3" d="M137.678+204.886C137.678+202.211+138.22+199.79+139.303+197.624C140.352+195.491+141.825+193.832+143.721+192.647C145.617+191.496+147.767+190.921+150.17+190.921C153.894+190.921+156.924+192.207+159.26+194.78C161.562+197.387+162.713+200.84+162.713+205.139C162.713+205.207+162.713+205.309+162.713+205.444C162.713+208.119+162.205+210.522+161.19+212.655C160.14+214.788+158.668+216.447+156.772+217.632C154.876+218.817+152.692+219.409+150.221+219.409C146.497+219.409+143.484+218.106+141.182+215.499C138.846+212.926+137.678+209.507+137.678+205.241C137.678+205.173+137.678+205.055+137.678+204.886ZM142.451+205.444C142.451+208.491+143.145+210.945+144.533+212.807C145.955+214.636+147.851+215.55+150.221+215.55C152.625+215.55+154.52+214.619+155.908+212.757C157.297+210.895+157.991+208.271+157.991+204.886C157.991+201.873+157.28+199.435+155.858+197.573C154.436+195.711+152.54+194.78+150.17+194.78C147.868+194.78+146.006+195.694+144.584+197.522C143.162+199.384+142.451+202.025+142.451+205.444Z" fill="#333333" stroke-linecap="butt" opacity="1" stroke-linejoin="round"/>
<path stroke="#333333" stroke-width="3" d="M193.487+185.69C191.692+185.69+188.087+185.69+182.67+185.69C182.67+190.768+182.67+200.925+182.67+216.159C182.67+217.987+181.993+218.901+180.639+218.901C179.285+218.901+178.608+217.987+178.608+216.159C178.608+209.388+178.608+199.232+178.608+185.69C176.78+185.69+173.157+185.69+167.741+185.69C165.946+185.69+165.049+185.013+165.049+183.659C165.049+182.305+165.946+181.628+167.741+181.628C173.462+181.628+182.044+181.628+193.487+181.628C195.315+181.628+196.229+182.305+196.229+183.659C196.229+185.013+195.315+185.69+193.487+185.69Z" fill="#333333" stroke-linecap="butt" opacity="1" stroke-linejoin="round"/>
<path stroke="#333333" stroke-width="3" d="M218.471+208.542C216.101+208.542+211.379+208.542+204.303+208.542C203.761+209.998+202.695+212.943+201.104+217.378C200.698+218.393+200.054+218.918+199.174+218.952C198.903+218.952+198.616+218.901+198.311+218.8C197.363+218.495+196.889+217.919+196.889+217.073C196.889+216.734+196.974+216.345+197.143+215.905C199.885+208.694+203.981+197.878+209.432+183.456C209.838+182.44+210.481+181.932+211.362+181.932C212.276+181.899+212.936+182.406+213.342+183.456C216.118+190.667+220.265+201.483+225.783+215.905C225.919+216.277+225.987+216.599+225.987+216.87C225.987+217.716+225.496+218.309+224.514+218.647C223.194+219.155+222.263+218.732+221.721+217.378C221.01+215.414+219.927+212.469+218.471+208.542ZM205.623+204.835C207.553+204.835+211.395+204.835+217.151+204.835C216.203+202.194+214.29+196.913+211.412+188.991C210.431+191.632+208.501+196.913+205.623+204.835Z" fill="#333333" stroke-linecap="butt" opacity="1" stroke-linejoin="round"/>
</g>
<path stroke="#000000" stroke-width="3" d="M80.4925+228.392L205.737+228.392C211.26+228.392+215.737+235.113+215.737+243.403L215.737+261.112C215.737+269.402+211.26+276.123+205.737+276.123L80.4925+276.123C74.9697+276.123+70.4925+269.402+70.4925+261.112L70.4925+243.403C70.4925+235.113+74.9697+228.392+80.4925+228.392Z" fill="#fffea9" stroke-linecap="butt" opacity="1" stroke-linejoin="round"/>
<path stroke="#000000" stroke-width="2" d="M82.388+241.841L202.807+241.841C203.585+241.841+204.216+242.839+204.216+244.07L204.216+244.07C204.216+245.301+203.585+246.298+202.807+246.298L82.388+246.298C81.6097+246.298+80.9788+245.301+80.9788+244.07L80.9788+244.07C80.9788+242.839+81.6097+241.841+82.388+241.841Z" fill="#95bb8f" stroke-linecap="butt" opacity="1" stroke-linejoin="round"/>
<path stroke="#000000" stroke-width="2" d="M83.0792+257.04L203.498+257.04C204.276+257.04+204.907+258.038+204.907+259.268L204.907+259.268C204.907+260.499+204.276+261.497+203.498+261.497L83.0792+261.497C82.3009+261.497+81.67+260.499+81.67+259.268L81.67+259.268C81.67+258.038+82.3009+257.04+83.0792+257.04Z" fill="#95bb8f" stroke-linecap="butt" opacity="1" stroke-linejoin="round"/>
<path stroke="#2d2d2d" stroke-width="3" d="M105.01+10.3132L105.01+10.3132C108.379+10.3132+111.11+13.0443+111.11+16.4132L111.11+16.4132C111.11+19.7822+108.379+22.5133+105.01+22.5133L105.01+22.5133C101.641+22.5133+98.9096+19.7822+98.9096+16.4132L98.9096+16.4132C98.9096+13.0443+101.641+10.3132+105.01+10.3132Z" fill="#88d77e" stroke-linecap="butt" opacity="1" stroke-linejoin="round"/>
<path stroke="#2d2d2d" stroke-width="3" d="M186.047+10.0795L186.047+10.0795C189.416+10.0795+192.147+12.8106+192.147+16.1796L192.147+16.1796C192.147+19.5485+189.416+22.2796+186.047+22.2796L186.047+22.2796C182.678+22.2796+179.947+19.5485+179.947+16.1796L179.947+16.1796C179.947+14.2734+180.822+12.5714+182.191+11.4528C183.242+10.5944+184.585+10.0795+186.047+10.0795Z" fill="#88d77e" stroke-linecap="butt" opacity="1" stroke-linejoin="round"/>
<path stroke="#2d2d2d" stroke-width="3" d="M104.932+23.7039L104.932+23.7039C105.006+23.7039+105.066+23.7639+105.066+23.8379L105.066+35.5205C105.066+35.5945+105.006+35.6545+104.932+35.6545L104.932+35.6545C104.858+35.6545+104.798+35.5945+104.798+35.5205L104.798+23.8379C104.798+23.7639+104.858+23.7039+104.932+23.7039Z" fill="#f8f280" stroke-linecap="butt" opacity="1" stroke-linejoin="round"/>
<path stroke="#2d2d2d" stroke-width="3" d="M185.872+22.8991L185.872+22.8991C185.946+22.8991+186.006+22.9591+186.006+23.0331L186.006+34.7157C186.006+34.7897+185.946+34.8497+185.872+34.8497L185.872+34.8497C185.798+34.8497+185.738+34.7897+185.738+34.7157L185.738+23.0331C185.738+22.9591+185.798+22.8991+185.872+22.8991Z" fill="#f8f280" stroke-linecap="butt" opacity="1" stroke-linejoin="round"/>
</g>
</svg>
