<?xml version="1.0" encoding="UTF-8" standalone="no"?> <!-- Created with Vectornator for iOS (http://vectornator.io/) --><!DOCTYPE svg PUBLIC "-//W3C//DTD SVG 1.1//EN" "http://www.w3.org/Graphics/SVG/1.1/DTD/svg11.dtd">
<svg height="100%" style="fill-rule:evenodd;clip-rule:evenodd;stroke-linecap:round;stroke-linejoin:round;" xmlns:xlink="http://www.w3.org/1999/xlink" xmlns="http://www.w3.org/2000/svg" xml:space="preserve" width="100%" xmlns:vectornator="http://vectornator.io" version="1.1" viewBox="0 0 300 300">
<metadata>
<vectornator:setting key="DisplayWhiteBackground" value="0"/>
<vectornator:setting key="RulersVisible" value="1"/>
<vectornator:setting key="SnapToEdges" value="0"/>
<vectornator:setting key="Units" value="Pixels"/>
<vectornator:setting key="DynamicGuides" value="0"/>
<vectornator:setting key="SnapToPoints" value="0"/>
<vectornator:setting key="SnapToGrid" value="0"/>
<vectornator:setting key="SnapToGuides" value="1"/>
<vectornator:setting key="ShowGrid" value="1"/>
<vectornator:setting key="GridSpacing" value="36"/>
</metadata>
<defs>
<linearGradient y1="209.975" id="LinearGradient" x1="166.323" y2="209.975" x2="195.653" gradientUnits="userSpaceOnUse" gradientTransform="matrix(1 0 0 1 -39.1459 -52.131)">
<stop stop-color="#68b743" offset="0"/>
<stop stop-color="#4c8a2e" offset="1"/>
</linearGradient>
</defs>
<g id="Layer 1" vectornator:layerName="Layer 1">
<path stroke="#000000" stroke-width="3" d="M127.177+147.723L156.507+147.723L156.507+167.965L127.177+167.965L127.177+147.723Z" fill="url(#LinearGradient)" stroke-linecap="butt" opacity="1" stroke-linejoin="round"/>
<path stroke="#000000" stroke-width="3" d="M60.8541+78.869L60.8541+78.869C66.377+78.869+70.8541+82.7424+70.8541+87.5205L70.8541+105.218C70.8541+109.996+66.377+113.869+60.8541+113.869L60.8541+113.869C55.3313+113.869+50.8541+109.996+50.8541+105.218L50.8541+87.5205C50.8541+82.7424+55.3313+78.869+60.8541+78.869Z" fill="#72b46a" stroke-linecap="butt" opacity="1" stroke-linejoin="round"/>
<path stroke="#000000" stroke-width="3" d="M230.854+78.869L230.854+78.869C236.377+78.869+240.854+82.7424+240.854+87.5205L240.854+105.218C240.854+109.996+236.377+113.869+230.854+113.869L230.854+113.869C225.331+113.869+220.854+109.996+220.854+105.218L220.854+87.5205C220.854+82.7424+225.331+78.869+230.854+78.869Z" fill="#72b46a" stroke-linecap="butt" opacity="1" stroke-linejoin="round"/>
<path stroke="#2d2d2d" stroke-width="3" d="M105.078+35.7359L105.078+35.7359C111.326+35.7359+116.391+40.8008+116.391+47.0488L116.391+47.0488C116.391+53.2967+111.326+58.3617+105.078+58.3617L105.078+58.3617C98.83+58.3617+93.765+53.2967+93.765+47.0488L93.765+47.0488C93.765+40.8008+98.83+35.7359+105.078+35.7359Z" fill="#f8f280" stroke-linecap="butt" opacity="1" stroke-linejoin="round"/>
<path stroke="#2d2d2d" stroke-width="3" d="M185.672+35.3504L185.672+35.3504C191.92+35.3504+196.985+40.4154+196.985+46.6633L196.985+46.6633C196.985+52.9113+191.92+57.9763+185.672+57.9763L185.672+57.9763C179.424+57.9763+174.359+52.9113+174.359+46.6633L174.359+46.6633C174.359+40.4154+179.424+35.3504+185.672+35.3504Z" fill="#f8f280" stroke-linecap="butt" opacity="1" stroke-linejoin="round"/>
<path stroke="#000000" stroke-width="3" d="M78.3289+47.869L213.379+47.869C223.03+47.869+230.854+54.9824+230.854+63.7573L230.854+131.981C230.854+140.756+223.03+147.869+213.379+147.869L78.3289+147.869C68.6778+147.869+60.8541+140.756+60.8541+131.981L60.8541+63.7573C60.8541+54.9824+68.6778+47.869+78.3289+47.869Z" fill="#fffea9" stroke-linecap="butt" opacity="1" stroke-linejoin="round"/>
<path stroke="#313131" stroke-width="1" d="M95.5032+57.869L95.5032+57.869C103.671+57.869+110.292+64.4903+110.292+72.6581L110.292+88.6034C110.292+96.7712+103.671+103.393+95.5032+103.393L95.5032+103.393C87.3354+103.393+80.7141+96.7712+80.7141+88.6034L80.7141+72.6581C80.7141+64.4903+87.3354+57.869+95.5032+57.869Z" fill="#262626" stroke-linecap="butt" opacity="1" stroke-linejoin="round"/>
<path stroke="#ffffff" stroke-width="1" d="M98.3536+64.3262L98.3536+64.3262C102.457+64.3262+105.784+67.6527+105.784+71.7562L105.784+71.7562C105.784+75.8598+102.457+79.1863+98.3536+79.1863L98.3536+79.1863C94.2501+79.1863+90.9235+75.8598+90.9235+71.7562L90.9235+71.7562C90.9235+67.6527+94.2501+64.3262+98.3536+64.3262Z" fill="#ffffff" stroke-linecap="butt" opacity="1" stroke-linejoin="round"/>
<path stroke="#313131" stroke-width="1" d="M194.721+57.869L194.721+57.869C202.889+57.869+209.51+64.4903+209.51+72.6581L209.51+88.6034C209.51+96.7712+202.889+103.393+194.721+103.393L194.721+103.393C186.554+103.393+179.932+96.7712+179.932+88.6034L179.932+72.6581C179.932+64.4903+186.554+57.869+194.721+57.869Z" fill="#262626" stroke-linecap="butt" opacity="1" stroke-linejoin="round"/>
<path stroke="#ffffff" stroke-width="1" d="M197.572+64.3262L197.572+64.3262C201.675+64.3262+205.002+67.6527+205.002+71.7562L205.002+71.7562C205.002+75.8598+201.675+79.1863+197.572+79.1863L197.572+79.1863C193.468+79.1863+190.142+75.8598+190.142+71.7562L190.142+71.7562C190.142+67.6527+193.468+64.3262+197.572+64.3262Z" fill="#ffffff" stroke-linecap="butt" opacity="1" stroke-linejoin="round"/>
<path stroke="#ffffff" stroke-width="1" d="M111.871+109.975" fill="#ffffff" stroke-linecap="butt" opacity="1" stroke-linejoin="round"/>
<path stroke="#292929" stroke-width="1" d="M157.429+113.47C157.424+112.016+161.351+112.929+161.352+113.693C161.377+134.135+124.565+136.994+123.542+112.27C123.531+111.999+127.509+111.753+127.448+112.435C125.692+131.939+157.492+131.449+157.429+113.47Z" fill="#282828" stroke-linecap="butt" opacity="1" stroke-linejoin="round"/>
<path stroke="#000000" stroke-width="3" d="M50.8151+158.439L240.893+158.439C251.917+158.439+260.854+167.448+260.854+178.56L260.854+263.318C260.854+274.43+251.917+283.439+240.893+283.439L50.8151+283.439C39.791+283.439+30.8541+274.43+30.8541+263.318L30.8541+178.56C30.8541+167.448+39.791+158.439+50.8151+158.439Z" fill="#88d77e" stroke-linecap="butt" opacity="1" stroke-linejoin="round"/>
<path stroke="#000000" stroke-width="1" d="M304.104+195.369L304.265+195.369C304.265+195.369+304.265+195.369+304.265+195.37L304.265+195.37C304.265+195.37+304.265+195.37+304.265+195.37L304.104+195.37C304.104+195.37+304.103+195.37+304.103+195.37L304.103+195.37C304.103+195.369+304.104+195.369+304.104+195.369Z" fill="#ffffff" stroke-linecap="butt" opacity="1" stroke-linejoin="round"/>
<g opacity="1">
<path stroke="#000000" stroke-width="1" d="M46.8801+240.134C48.1525+240.281+47.3551+244.032+46.684+244.056C38.2214+244.361+7.96554+242.41+6.08+233.254C4.84834+227.272+5.18658+226.292+6.35156+222.8C10.1936+211.281+25.8485+213.655+29.6333+213.524C29.8711+213.516+30.5527+217.085+29.9509+217.072C21.134+216.877+13.509+217.565+10.6797+221.611C8.21312+225.139+7.54185+228.689+9.73402+232.098C15.2151+240.623+34.8848+238.749+46.8801+240.134Z" fill="#000000" stroke-linecap="butt" opacity="1" stroke-linejoin="round"/>
<path stroke="#000000" stroke-width="1" d="M59.8545+251.961C61.1335+251.957+60.3299+254.485+59.6585+254.486C41.676+254.502+39.1604+230.805+60.9102+230.146C61.148+230.139+61.3644+232.7+60.7648+232.66C43.6074+231.53+44.0381+252.001+59.8545+251.961Z" fill="#000000" stroke-linecap="butt" opacity="1" stroke-linejoin="round"/>
</g>
<g opacity="1">
<path stroke="#000000" stroke-width="1" d="M241.946+240.223C240.553+240.365+241.426+243.977+242.161+244.001C251.425+244.295+284.546+242.416+286.61+233.598C287.959+227.838+287.588+226.894+286.313+223.53C282.107+212.438+264.97+214.725+260.826+214.598C260.566+214.59+259.82+218.028+260.479+218.015C270.131+217.827+278.478+218.49+281.575+222.386C284.275+225.783+285.01+229.202+282.61+232.485C276.61+240.695+255.077+238.89+241.946+240.223Z" fill="#000000" stroke-linecap="butt" opacity="1" stroke-linejoin="round"/>
<path stroke="#000000" stroke-width="1" d="M227.743+251.613C226.342+251.61+227.222+254.044+227.957+254.045C247.643+254.06+250.397+231.239+226.587+230.605C226.327+230.598+226.09+233.064+226.746+233.026C245.529+231.938+245.057+251.652+227.743+251.613Z" fill="#000000" stroke-linecap="butt" opacity="1" stroke-linejoin="round"/>
</g>
<g opacity="1">
<path d="M63.804+220.891C65.8352+220.891+66.9778+219.876+67.6888+217.438L69.6184+211.725L82.847+211.725L84.7767+217.514C85.4622+219.901+86.6048+220.891+88.763+220.891C90.9974+220.891+92.597+219.393+92.597+217.286C92.597+216.524+92.47+215.839+92.1145+214.848L82.0599+187.579C80.9681+184.583+79.1907+183.262+76.1946+183.262C73.3001+183.262+71.4974+184.634+70.4309+187.604L60.427+214.848C60.097+215.788+59.9192+216.651+59.9192+217.286C59.9192+219.495+61.4173+220.891+63.804+220.891ZM71.2942+205.784L76.0423+190.778L76.22+190.778L81.0696+205.784L71.2942+205.784Z" opacity="1" fill="#333333"/>
<path d="M105.394+220.917C109.507+220.917+112.199+218.936+113.544+215.509L113.697+215.509L113.697+217.184C113.697+219.647+115.144+220.942+117.277+220.942C119.409+220.942+120.857+219.647+120.857+217.184L120.857+196.516C120.857+193.977+119.333+192.632+117.15+192.632C114.991+192.632+113.443+193.977+113.443+196.516L113.443+208.78C113.443+212.386+111.386+214.747+108.085+214.747C104.81+214.747+103.007+212.817+103.007+209.186L103.007+196.516C103.007+193.977+101.484+192.632+99.3001+192.632C97.1419+192.632+95.5931+193.977+95.5931+196.516L95.5931+210.735C95.5931+217.083+99.5032+220.917+105.394+220.917Z" opacity="1" fill="#333333"/>
<path d="M127.661+213.452C127.661+218.251+130.175+220.714+135.126+220.714L135.38+220.714C138.503+220.714+140.636+219.596+140.636+217.413C140.636+215.686+139.646+214.925+137.818+214.721L137.335+214.671C135.736+214.544+135.075+213.731+135.075+211.802L135.075+198.776L137.691+198.776C139.443+198.776+140.534+197.684+140.534+195.983C140.534+194.282+139.443+193.19+137.691+193.19L135.075+193.19L135.075+190.169C135.075+187.782+133.679+186.309+131.368+186.309C129.058+186.309+127.661+187.782+127.661+190.169L127.661+193.19L126.24+193.19C124.488+193.19+123.37+194.257+123.37+195.983C123.37+197.71+124.488+198.776+126.24+198.776L127.661+198.776L127.661+213.452Z" opacity="1" fill="#333333"/>
<path d="M156.277+220.993C164.503+220.993+169.759+215.737+169.759+206.774C169.759+197.938+164.427+192.606+156.277+192.606C148.126+192.606+142.794+197.964+142.794+206.774C142.794+215.712+148.05+220.993+156.277+220.993ZM156.277+215.331C152.62+215.331+150.31+212.259+150.31+206.8C150.31+201.391+152.671+198.268+156.277+198.268C159.882+198.268+162.218+201.391+162.218+206.8C162.218+212.259+159.908+215.331+156.277+215.331Z" opacity="1" fill="#333333"/>
<path d="M181.083+220.891C183.495+220.891+184.917+219.419+184.917+216.905L184.917+190.118L192.509+190.118C194.566+190.118+195.962+188.925+195.962+186.944C195.962+184.964+194.591+183.77+192.509+183.77L169.683+183.77C167.575+183.77+166.204+184.964+166.204+186.944C166.204+188.925+167.601+190.118+169.683+190.118L177.249+190.118L177.249+216.905C177.249+219.419+178.671+220.891+181.083+220.891Z" opacity="1" fill="#333333"/>
<path d="M197.257+220.891C199.288+220.891+200.431+219.876+201.142+217.438L203.072+211.725L216.3+211.725L218.23+217.514C218.915+219.901+220.058+220.891+222.216+220.891C224.45+220.891+226.05+219.393+226.05+217.286C226.05+216.524+225.923+215.839+225.568+214.848L215.513+187.579C214.421+184.583+212.644+183.262+209.648+183.262C206.753+183.262+204.95+184.634+203.884+187.604L193.88+214.848C193.55+215.788+193.372+216.651+193.372+217.286C193.372+219.495+194.87+220.891+197.257+220.891ZM204.747+205.784L209.495+190.778L209.673+190.778L214.523+205.784L204.747+205.784Z" opacity="1" fill="#333333"/>
</g>
<path stroke="#000000" stroke-width="3" d="M80.4925+228.392L205.737+228.392C211.26+228.392+215.737+235.113+215.737+243.403L215.737+261.112C215.737+269.402+211.26+276.123+205.737+276.123L80.4925+276.123C74.9697+276.123+70.4925+269.402+70.4925+261.112L70.4925+243.403C70.4925+235.113+74.9697+228.392+80.4925+228.392Z" fill="#fffea9" stroke-linecap="butt" opacity="1" stroke-linejoin="round"/>
<path stroke="#000000" stroke-width="2" d="M82.388+234.797L202.807+234.797C203.585+234.797+204.216+235.795+204.216+237.026L204.216+237.026C204.216+238.257+203.585+239.255+202.807+239.255L82.388+239.255C81.6097+239.255+80.9788+238.257+80.9788+237.026L80.9788+237.026C80.9788+235.795+81.6097+234.797+82.388+234.797Z" fill="#95bb8f" stroke-linecap="butt" opacity="1" stroke-linejoin="round"/>
<path stroke="#000000" stroke-width="2" d="M82.5349+245.424L202.954+245.424C203.732+245.424+204.363+246.422+204.363+247.653L204.363+247.653C204.363+248.884+203.732+249.882+202.954+249.882L82.5349+249.882C81.7566+249.882+81.1257+248.884+81.1257+247.653L81.1257+247.653C81.1257+246.422+81.7566+245.424+82.5349+245.424Z" fill="#95bb8f" stroke-linecap="butt" opacity="1" stroke-linejoin="round"/>
<path stroke="#000000" stroke-width="2" d="M82.5331+255.417L202.952+255.417C203.73+255.417+204.361+256.415+204.361+257.645L204.361+257.645C204.361+258.876+203.73+259.874+202.952+259.874L82.5331+259.874C81.7548+259.874+81.1239+258.876+81.1239+257.645L81.1239+257.645C81.1239+256.415+81.7548+255.417+82.5331+255.417Z" fill="#95bb8f" stroke-linecap="butt" opacity="1" stroke-linejoin="round"/>
<path stroke="#000000" stroke-width="2" d="M82.8428+265.402L203.262+265.402C204.04+265.402+204.671+266.4+204.671+267.63L204.671+267.63C204.671+268.861+204.04+269.859+203.262+269.859L82.8428+269.859C82.0645+269.859+81.4335+268.861+81.4335+267.63L81.4335+267.63C81.4335+266.4+82.0645+265.402+82.8428+265.402Z" fill="#95bb8f" stroke-linecap="butt" opacity="1" stroke-linejoin="round"/>
<path stroke="#2d2d2d" stroke-width="3" d="M105.01+10.3132L105.01+10.3132C108.379+10.3132+111.11+13.0443+111.11+16.4132L111.11+16.4132C111.11+19.7822+108.379+22.5133+105.01+22.5133L105.01+22.5133C101.641+22.5133+98.9096+19.7822+98.9096+16.4132L98.9096+16.4132C98.9096+13.0443+101.641+10.3132+105.01+10.3132Z" fill="#88d77e" stroke-linecap="butt" opacity="1" stroke-linejoin="round"/>
<path stroke="#2d2d2d" stroke-width="3" d="M186.047+10.0795L186.047+10.0795C189.416+10.0795+192.147+12.8106+192.147+16.1796L192.147+16.1796C192.147+19.5485+189.416+22.2796+186.047+22.2796L186.047+22.2796C182.678+22.2796+179.947+19.5485+179.947+16.1796L179.947+16.1796C179.947+14.2734+180.822+12.5714+182.191+11.4528C183.242+10.5944+184.585+10.0795+186.047+10.0795Z" fill="#88d77e" stroke-linecap="butt" opacity="1" stroke-linejoin="round"/>
<path stroke="#2d2d2d" stroke-width="3" d="M104.932+23.7039L104.932+23.7039C105.006+23.7039+105.066+23.7639+105.066+23.8379L105.066+35.5205C105.066+35.5945+105.006+35.6545+104.932+35.6545L104.932+35.6545C104.858+35.6545+104.798+35.5945+104.798+35.5205L104.798+23.8379C104.798+23.7639+104.858+23.7039+104.932+23.7039Z" fill="#f8f280" stroke-linecap="butt" opacity="1" stroke-linejoin="round"/>
<path stroke="#2d2d2d" stroke-width="3" d="M185.872+22.8991L185.872+22.8991C185.946+22.8991+186.006+22.9591+186.006+23.0331L186.006+34.7157C186.006+34.7897+185.946+34.8497+185.872+34.8497L185.872+34.8497C185.798+34.8497+185.738+34.7897+185.738+34.7157L185.738+23.0331C185.738+22.9591+185.798+22.8991+185.872+22.8991Z" fill="#f8f280" stroke-linecap="butt" opacity="1" stroke-linejoin="round"/>
</g>
</svg>
