<?xml version="1.0" encoding="UTF-8" standalone="no"?> <!-- Created with Vectornator for iOS (http://vectornator.io/) --><!DOCTYPE svg PUBLIC "-//W3C//DTD SVG 1.1//EN" "http://www.w3.org/Graphics/SVG/1.1/DTD/svg11.dtd">
<svg style="fill-rule:evenodd;clip-rule:evenodd;stroke-linecap:round;stroke-linejoin:round;" xmlns:vectornator="http://vectornator.io" xmlns:xlink="http://www.w3.org/1999/xlink" xmlns="http://www.w3.org/2000/svg" xml:space="preserve" version="1.1" viewBox="0 0 300 300">
<metadata>
<vectornator:setting key="DisplayWhiteBackground" value="0"/>
<vectornator:setting key="RulersVisible" value="1"/>
<vectornator:setting key="GridSpacing" value="36"/>
<vectornator:setting key="Units" value="Pixels"/>
<vectornator:setting key="DynamicGuides" value="0"/>
<vectornator:setting key="SnapToPoints" value="0"/>
<vectornator:setting key="CMYKEnabledKey" value="0"/>
<vectornator:setting key="SnapToGrid" value="0"/>
<vectornator:setting key="SnapToGuides" value="1"/>
<vectornator:setting key="ShowGrid" value="1"/>
<vectornator:setting key="SnapToEdges" value="0"/>
</metadata>
<defs>
<linearGradient y1="209.975" id="LinearGradient" x1="166.323" y2="209.975" x2="195.653" gradientUnits="userSpaceOnUse" gradientTransform="matrix(1 0 0 1 -39.1459 -52.131)">
<stop stop-color="#68b743" offset="0"/>
<stop stop-color="#4c8a2e" offset="1"/>
</linearGradient>
</defs>
<g id="Layer 1" vectornator:layerName="Layer 1">
<path stroke="#000000" stroke-width="3" d="M127.177+147.723L156.507+147.723L156.507+167.965L127.177+167.965L127.177+147.723Z" fill="url(#LinearGradient)" stroke-linecap="butt" opacity="1" stroke-linejoin="round"/>
<path stroke="#000000" stroke-width="3" d="M60.8541+78.869L60.8541+78.869C66.377+78.869+70.8541+82.7424+70.8541+87.5205L70.8541+105.218C70.8541+109.996+66.377+113.869+60.8541+113.869L60.8541+113.869C55.3313+113.869+50.8541+109.996+50.8541+105.218L50.8541+87.5205C50.8541+82.7424+55.3313+78.869+60.8541+78.869Z" fill="#72b46a" stroke-linecap="butt" opacity="1" stroke-linejoin="round"/>
<path stroke="#000000" stroke-width="3" d="M230.854+78.869L230.854+78.869C236.377+78.869+240.854+82.7424+240.854+87.5205L240.854+105.218C240.854+109.996+236.377+113.869+230.854+113.869L230.854+113.869C225.331+113.869+220.854+109.996+220.854+105.218L220.854+87.5205C220.854+82.7424+225.331+78.869+230.854+78.869Z" fill="#72b46a" stroke-linecap="butt" opacity="1" stroke-linejoin="round"/>
<path stroke="#2d2d2d" stroke-width="3" d="M105.078+35.7359L105.078+35.7359C111.326+35.7359+116.391+40.8008+116.391+47.0488L116.391+47.0488C116.391+53.2967+111.326+58.3617+105.078+58.3617L105.078+58.3617C98.83+58.3617+93.765+53.2967+93.765+47.0488L93.765+47.0488C93.765+40.8008+98.83+35.7359+105.078+35.7359Z" fill="#88d77e" stroke-linecap="butt" opacity="1" stroke-linejoin="round"/>
<path stroke="#2d2d2d" stroke-width="3" d="M185.672+35.3504L185.672+35.3504C191.92+35.3504+196.985+40.4154+196.985+46.6633L196.985+46.6633C196.985+52.9113+191.92+57.9763+185.672+57.9763L185.672+57.9763C179.424+57.9763+174.359+52.9113+174.359+46.6633L174.359+46.6633C174.359+40.4154+179.424+35.3504+185.672+35.3504Z" fill="#88d77e" stroke-linecap="butt" opacity="1" stroke-linejoin="round"/>
<path stroke="#000000" stroke-width="3" d="M78.3289+47.869L213.379+47.869C223.03+47.869+230.854+54.9824+230.854+63.7573L230.854+131.981C230.854+140.756+223.03+147.869+213.379+147.869L78.3289+147.869C68.6778+147.869+60.8541+140.756+60.8541+131.981L60.8541+63.7573C60.8541+54.9824+68.6778+47.869+78.3289+47.869Z" fill="#fffea9" stroke-linecap="butt" opacity="1" stroke-linejoin="round"/>
<path stroke="#313131" stroke-width="1" d="M95.5032+57.869L95.5032+57.869C103.671+57.869+110.292+64.4903+110.292+72.6581L110.292+88.6034C110.292+96.7712+103.671+103.393+95.5032+103.393L95.5032+103.393C87.3354+103.393+80.7141+96.7712+80.7141+88.6034L80.7141+72.6581C80.7141+64.4903+87.3354+57.869+95.5032+57.869Z" fill="#262626" stroke-linecap="butt" opacity="1" stroke-linejoin="round"/>
<path stroke="#ffffff" stroke-width="1" d="M98.3536+64.3262L98.3536+64.3262C102.457+64.3262+105.784+67.6527+105.784+71.7562L105.784+71.7562C105.784+75.8598+102.457+79.1863+98.3536+79.1863L98.3536+79.1863C94.2501+79.1863+90.9235+75.8598+90.9235+71.7562L90.9235+71.7562C90.9235+67.6527+94.2501+64.3262+98.3536+64.3262Z" fill="#ffffff" stroke-linecap="butt" opacity="1" stroke-linejoin="round"/>
<path stroke="#313131" stroke-width="1" d="M194.721+57.869L194.721+57.869C202.889+57.869+209.51+64.4903+209.51+72.6581L209.51+88.6034C209.51+96.7712+202.889+103.393+194.721+103.393L194.721+103.393C186.554+103.393+179.932+96.7712+179.932+88.6034L179.932+72.6581C179.932+64.4903+186.554+57.869+194.721+57.869Z" fill="#262626" stroke-linecap="butt" opacity="1" stroke-linejoin="round"/>
<path stroke="#ffffff" stroke-width="1" d="M197.572+64.3262L197.572+64.3262C201.675+64.3262+205.002+67.6527+205.002+71.7562L205.002+71.7562C205.002+75.8598+201.675+79.1863+197.572+79.1863L197.572+79.1863C193.468+79.1863+190.142+75.8598+190.142+71.7562L190.142+71.7562C190.142+67.6527+193.468+64.3262+197.572+64.3262Z" fill="#ffffff" stroke-linecap="butt" opacity="1" stroke-linejoin="round"/>
<path stroke="#ffffff" stroke-width="1" d="M111.871+109.975" fill="#ffffff" stroke-linecap="butt" opacity="1" stroke-linejoin="round"/>
<path stroke="#292929" stroke-width="1" d="M157.429+113.47C157.424+112.016+161.351+112.929+161.352+113.693C161.377+134.135+124.565+136.994+123.542+112.27C123.531+111.999+127.509+111.753+127.448+112.435C125.692+131.939+157.492+131.449+157.429+113.47Z" fill="#282828" stroke-linecap="butt" opacity="1" stroke-linejoin="round"/>
<path stroke="#000000" stroke-width="3" d="M50.8151+158.439L240.893+158.439C251.917+158.439+260.854+167.448+260.854+178.56L260.854+263.318C260.854+274.43+251.917+283.439+240.893+283.439L50.8151+283.439C39.791+283.439+30.8541+274.43+30.8541+263.318L30.8541+178.56C30.8541+167.448+39.791+158.439+50.8151+158.439Z" fill="#88d77e" stroke-linecap="butt" opacity="1" stroke-linejoin="round"/>
<g opacity="1">
<path stroke="#000000" stroke-width="1" d="M46.8801+240.134C48.1525+240.281+47.3551+244.032+46.684+244.056C38.2214+244.361+7.96554+242.41+6.08+233.254C4.84834+227.272+5.18658+226.292+6.35156+222.8C10.1936+211.281+25.8485+213.655+29.6333+213.524C29.8711+213.516+30.5527+217.085+29.9509+217.072C21.134+216.877+13.509+217.565+10.6797+221.611C8.21312+225.139+7.54185+228.689+9.73402+232.098C15.2151+240.623+34.8848+238.749+46.8801+240.134Z" fill="#000000" stroke-linecap="butt" opacity="1" stroke-linejoin="round"/>
<path stroke="#000000" stroke-width="1" d="M59.8545+251.961C61.1335+251.957+60.3299+254.485+59.6585+254.486C41.676+254.502+39.1604+230.805+60.9102+230.146C61.148+230.139+61.3644+232.7+60.7648+232.66C43.6074+231.53+44.0381+252.001+59.8545+251.961Z" fill="#000000" stroke-linecap="butt" opacity="1" stroke-linejoin="round"/>
</g>
<g opacity="1">
<path stroke="#000000" stroke-width="1" d="M241.946+240.223C240.553+240.365+241.426+243.977+242.161+244.001C251.425+244.295+284.546+242.416+286.61+233.598C287.959+227.838+287.588+226.894+286.313+223.53C282.107+212.438+264.97+214.725+260.826+214.598C260.566+214.59+259.82+218.028+260.479+218.015C270.131+217.827+278.478+218.49+281.575+222.386C284.275+225.783+285.01+229.202+282.61+232.485C276.61+240.695+255.077+238.89+241.946+240.223Z" fill="#000000" stroke-linecap="butt" opacity="1" stroke-linejoin="round"/>
<path stroke="#000000" stroke-width="1" d="M227.743+251.613C226.342+251.61+227.222+254.044+227.957+254.045C247.643+254.06+250.397+231.239+226.587+230.605C226.327+230.598+226.09+233.064+226.746+233.026C245.529+231.938+245.057+251.652+227.743+251.613Z" fill="#000000" stroke-linecap="butt" opacity="1" stroke-linejoin="round"/>
</g>
<text stroke="#333333" stroke-width="3" x="0" font-family="Roboto-Round-Regular" y="0" fill="#333333" stroke-linecap="butt" font-size="52" opacity="1" text-anchor="middle" transform="matrix(1 0 0 1 52.3538 170.409)" stroke-linejoin="round" vectornator:width="181.262" vectornator:text="AutoTA">
<tspan x="90.6308" y="49" textLength="167.426">
AutoTA</tspan>
</text>
<path stroke="#000000" stroke-width="3" d="M80.4925+228.392L205.737+228.392C211.26+228.392+215.737+235.113+215.737+243.403L215.737+261.112C215.737+269.402+211.26+276.123+205.737+276.123L80.4925+276.123C74.9697+276.123+70.4925+269.402+70.4925+261.112L70.4925+243.403C70.4925+235.113+74.9697+228.392+80.4925+228.392Z" fill="#fffea9" stroke-linecap="butt" opacity="1" stroke-linejoin="round"/>
<path stroke="#000000" stroke-width="2" d="M82.388+241.841L202.807+241.841C203.585+241.841+204.216+242.839+204.216+244.07L204.216+244.07C204.216+245.301+203.585+246.298+202.807+246.298L82.388+246.298C81.6097+246.298+80.9788+245.301+80.9788+244.07L80.9788+244.07C80.9788+242.839+81.6097+241.841+82.388+241.841Z" fill="#95bb8f" stroke-linecap="butt" opacity="1" stroke-linejoin="round"/>
<path stroke="#000000" stroke-width="2" d="M83.0792+257.04L203.498+257.04C204.276+257.04+204.907+258.038+204.907+259.268L204.907+259.268C204.907+260.499+204.276+261.497+203.498+261.497L83.0792+261.497C82.3009+261.497+81.67+260.499+81.67+259.268L81.67+259.268C81.67+258.038+82.3009+257.04+83.0792+257.04Z" fill="#95bb8f" stroke-linecap="butt" opacity="1" stroke-linejoin="round"/>
<path stroke="#2d2d2d" stroke-width="3" d="M105.01+10.3132L105.01+10.3132C108.379+10.3132+111.11+13.0443+111.11+16.4132L111.11+16.4132C111.11+19.7822+108.379+22.5133+105.01+22.5133L105.01+22.5133C101.641+22.5133+98.9096+19.7822+98.9096+16.4132L98.9096+16.4132C98.9096+13.0443+101.641+10.3132+105.01+10.3132Z" fill="#88d77e" stroke-linecap="butt" opacity="1" stroke-linejoin="round"/>
<path stroke="#2d2d2d" stroke-width="3" d="M186.047+10.0795L186.047+10.0795C189.416+10.0795+192.147+12.8106+192.147+16.1796L192.147+16.1796C192.147+19.5485+189.416+22.2796+186.047+22.2796L186.047+22.2796C182.678+22.2796+179.947+19.5485+179.947+16.1796L179.947+16.1796C179.947+14.2734+180.822+12.5714+182.191+11.4528C183.242+10.5944+184.585+10.0795+186.047+10.0795Z" fill="#88d77e" stroke-linecap="butt" opacity="1" stroke-linejoin="round"/>
<path stroke="#2d2d2d" stroke-width="3" d="M104.932+23.7039L104.932+23.7039C105.006+23.7039+105.066+23.7639+105.066+23.8379L105.066+35.5205C105.066+35.5945+105.006+35.6545+104.932+35.6545L104.932+35.6545C104.858+35.6545+104.798+35.5945+104.798+35.5205L104.798+23.8379C104.798+23.7639+104.858+23.7039+104.932+23.7039Z" fill="#f8f280" stroke-linecap="butt" opacity="1" stroke-linejoin="round"/>
<path stroke="#2d2d2d" stroke-width="3" d="M185.872+22.8991L185.872+22.8991C185.946+22.8991+186.006+22.9591+186.006+23.0331L186.006+34.7157C186.006+34.7897+185.946+34.8497+185.872+34.8497L185.872+34.8497C185.798+34.8497+185.738+34.7897+185.738+34.7157L185.738+23.0331C185.738+22.9591+185.798+22.8991+185.872+22.8991Z" fill="#f8f280" stroke-linecap="butt" opacity="1" stroke-linejoin="round"/>
</g>
</svg>
